<svg width="1822" height="109" viewBox="0 0 1822 109" fill="none" xmlns="http://www.w3.org/2000/svg">
<path d="M1444.66 54.7543L374.887 54.7543" stroke="#A4A1A1" stroke-opacity="0.8" stroke-width="3" stroke-linecap="round"/>
<path d="M1714.94 18.7997C1714.94 44.5426 1682.25 53.0785 1667.44 54.7545C1682.25 56.4304 1714.94 66.4644 1714.94 92.2074C1747.44 81.9996 1771.13 71.2337 1791.67 55.0007C1767.03 38.2752 1749.44 30.1423 1714.94 18.7997Z" stroke="#A4A1A1" stroke-opacity="0.8" stroke-width="3" stroke-linecap="square" stroke-linejoin="round"/>
<path d="M1487.02 36.7773C1487.02 49.9115 1503.61 53.8996 1511.39 54.7547C1503.61 55.6098 1487.02 61.0961 1487.02 74.2302L1445.68 54.7547L1487.02 36.7773Z" stroke="#A4A1A1" stroke-opacity="0.8" stroke-width="3" stroke-linejoin="round"/>
<path d="M1623.87 54.6661C1631.65 54.6128 1644.65 53.1138 1651.21 50.9828C1657.76 48.8519 1664.81 44.5854 1667.83 39.0868C1672.85 29.9225 1671.13 20.2157 1662.52 11.7538C1645.92 -4.55404 1598.49 0.351189 1603.51 25.9307M1603.51 25.9307C1603.66 26.6629 1603.84 27.4121 1604.07 28.1782M1603.51 25.9307C1603.6 26.69 1603.8 27.4414 1604.07 28.1782M1603.51 25.9307C1603.49 25.7744 1603.48 25.6178 1603.47 25.4609M1604.07 28.1782C1604.13 28.3567 1604.19 28.5361 1604.24 28.7165M1604.07 28.1782C1607.55 37.3349 1624.65 44.2328 1633.05 35.8322C1638.99 29.8962 1633.55 21.1301 1620.67 21.9892M1623.87 54.8173C1631.65 54.8706 1644.65 56.3696 1651.21 58.5006C1657.76 60.6315 1664.81 64.898 1667.83 70.3966C1672.85 79.5609 1671.13 89.2677 1662.52 97.7296C1645.92 114.037 1598.49 109.132 1603.51 83.5527M1603.51 83.5527C1603.66 82.8205 1603.84 82.0713 1604.07 81.3052M1603.51 83.5527C1603.6 82.7934 1603.8 82.042 1604.07 81.3052M1603.51 83.5527C1603.49 83.709 1603.48 83.8656 1603.47 84.0225M1604.07 81.3052C1604.13 81.1267 1604.19 80.9473 1604.24 80.7669M1604.07 81.3052C1607.55 72.1485 1624.65 65.2506 1633.05 73.6512C1638.99 79.5872 1633.55 88.3533 1620.67 87.4942" stroke="#A4A1A1" stroke-opacity="0.8" stroke-width="3" stroke-linecap="square" stroke-linejoin="round"/>
<path d="M1606.87 12.8076C1578.75 43.4911 1558.47 52.0712 1520.63 54.7549C1558.47 57.4385 1578.75 66.0186 1606.87 96.7021" stroke="#A4A1A1" stroke-opacity="0.8" stroke-width="3" stroke-linecap="square" stroke-linejoin="round"/>
<path d="M107.059 18.7997C107.059 44.5426 139.752 53.0785 154.559 54.7545C139.752 56.4304 107.059 66.4644 107.059 92.2074C74.5616 81.9996 50.8668 71.2337 30.3338 55.0007C54.9734 38.2752 72.5605 30.1423 107.059 18.7997Z" stroke="#A4A1A1" stroke-opacity="0.8" stroke-width="3" stroke-linecap="square" stroke-linejoin="round"/>
<path d="M334.976 36.7773C334.976 49.9115 318.39 53.8996 310.61 54.7547C318.39 55.6098 334.976 61.0961 334.976 74.2302L376.316 54.7547L334.976 36.7773Z" stroke="#A4A1A1" stroke-opacity="0.8" stroke-width="3" stroke-linejoin="round"/>
<path d="M198.133 54.6661C190.35 54.6128 177.349 53.1138 170.795 50.9828C164.24 48.8519 157.186 44.5854 154.172 39.0868C149.147 29.9225 150.871 20.2157 159.484 11.7538C176.084 -4.55404 223.513 0.351189 218.488 25.9307M218.488 25.9307C218.344 26.6629 218.157 27.4121 217.925 28.1782M218.488 25.9307C218.396 26.69 218.205 27.4414 217.925 28.1782M218.488 25.9307C218.506 25.7744 218.521 25.6178 218.531 25.4609M217.925 28.1782C217.871 28.3567 217.815 28.5361 217.756 28.7165M217.925 28.1782C214.451 37.3349 197.351 44.2328 188.946 35.8322C183.007 29.8962 188.447 21.1301 201.325 21.9892M198.133 54.8173C190.35 54.8706 177.349 56.3696 170.795 58.5006C164.24 60.6315 157.186 64.898 154.172 70.3966C149.147 79.5609 150.871 89.2677 159.484 97.7296C176.084 114.037 223.513 109.132 218.488 83.5527M218.488 83.5527C218.344 82.8205 218.157 82.0713 217.925 81.3052M218.488 83.5527C218.396 82.7934 218.205 82.042 217.925 81.3052M218.488 83.5527C218.506 83.709 218.521 83.8656 218.531 84.0225M217.925 81.3052C217.871 81.1267 217.815 80.9473 217.756 80.7669M217.925 81.3052C214.451 72.1485 197.351 65.2506 188.946 73.6512C183.007 79.5872 188.447 88.3533 201.325 87.4942" stroke="#A4A1A1" stroke-opacity="0.8" stroke-width="3" stroke-linecap="square" stroke-linejoin="round"/>
<path d="M215.131 12.8076C243.251 43.4911 263.528 52.0712 301.37 54.7549C263.528 57.4385 243.251 66.0186 215.131 96.7021" stroke="#A4A1A1" stroke-opacity="0.8" stroke-width="3" stroke-linecap="square" stroke-linejoin="round"/>
</svg>
